<svg xmlns="http://www.w3.org/2000/svg" width="44.863" height="40" viewBox="0 0 44.863 40"><defs><style>.a{fill:#f05cb3;}</style></defs><g transform="translate(-471.016 -91)"><g transform="translate(471.016 91)"><path class="a" d="M5.479,961.362a1.463,1.463,0,0,0,0,2.927h5.64l5.031,23.735c.2.894.785,1.637,1.524,1.631h24.39a1.464,1.464,0,1,0,0-2.927h-23.2l-.625-2.927H44.016a1.509,1.509,0,0,0,1.418-1.143l3.415-14.634a1.531,1.531,0,0,0-1.418-1.784h-32.9l-.793-3.719a1.51,1.51,0,0,0-1.433-1.159Zm9.665,7.8H45.586l-2.729,11.707H17.629Zm7.9,22.439a4.878,4.878,0,1,0,4.878,4.878A4.9,4.9,0,0,0,23.04,991.606Zm13.659,0a4.878,4.878,0,1,0,4.878,4.878A4.9,4.9,0,0,0,36.7,991.606ZM23.04,994.533a1.951,1.951,0,1,1-1.951,1.951A1.93,1.93,0,0,1,23.04,994.533Zm13.659,0a1.951,1.951,0,1,1-1.951,1.951A1.93,1.93,0,0,1,36.7,994.533Z" transform="translate(-4.016 -961.362)"/></g></g></svg>